<svg xmlns="http://www.w3.org/2000/svg" width="467.814" height="361.74" viewBox="0 0 467.814 361.74">
  <g id="Businessman-rafiki" transform="translate(-32.363 -55)">
    <g id="background-complete--inject-70">
      <rect id="Rectángulo_1569" data-name="Rectángulo 1569" width="456" height="0.25" transform="translate(44 382.4)" fill="#ebebeb"/>
      <rect id="Rectángulo_1570" data-name="Rectángulo 1570" width="37.04" height="0.25" transform="translate(52.46 389.21)" fill="#ebebeb"/>
      <rect id="Rectángulo_1571" data-name="Rectángulo 1571" width="71" height="0.25" transform="translate(169 394.62)" fill="#ebebeb"/>
      <rect id="Rectángulo_1572" data-name="Rectángulo 1572" width="50.75" height="0.25" transform="translate(94.92 389.33)" fill="#ebebeb"/>
      <rect id="Rectángulo_1573" data-name="Rectángulo 1573" width="48.67" height="0.25" transform="translate(406.78 396.81)" fill="#ebebeb"/>
      <rect id="Rectángulo_1574" data-name="Rectángulo 1574" width="31.97" height="0.25" transform="translate(370.36 396.81)" fill="#ebebeb"/>
      <rect id="Rectángulo_1575" data-name="Rectángulo 1575" width="62.01" height="0.25" transform="translate(277.21 392.59)" fill="#ebebeb"/>
      <path id="Trazado_864" data-name="Trazado 864" d="M237,337.8H43.91a5.71,5.71,0,0,1-5.7-5.71V60.66A5.71,5.71,0,0,1,43.91,55H237a5.71,5.71,0,0,1,5.71,5.71V332.09A5.71,5.71,0,0,1,237,337.8ZM43.91,55.2a5.46,5.46,0,0,0-5.45,5.46V332.09a5.46,5.46,0,0,0,5.45,5.46H237a5.47,5.47,0,0,0,5.46-5.46V60.66A5.47,5.47,0,0,0,237,55.2Z" fill="#ebebeb"/>
      <path id="Trazado_865" data-name="Trazado 865" d="M453.31,337.8H260.21a5.72,5.72,0,0,1-5.71-5.71V60.66A5.72,5.72,0,0,1,260.21,55h193.1A5.71,5.71,0,0,1,459,60.66V332.09A5.71,5.71,0,0,1,453.31,337.8ZM260.21,55.2a5.47,5.47,0,0,0-5.46,5.46V332.09a5.47,5.47,0,0,0,5.46,5.46h193.1a5.47,5.47,0,0,0,5.46-5.46V60.66a5.47,5.47,0,0,0-5.46-5.46Z" fill="#ebebeb"/>
      <rect id="Rectángulo_1576" data-name="Rectángulo 1576" width="291.89" height="161.54" transform="translate(409.29 229.78) rotate(180)" fill="#ebebeb"/>
      <rect id="Rectángulo_1577" data-name="Rectángulo 1577" width="3.44" height="161.54" transform="translate(113.95 68.24)" fill="#e0e0e0"/>
      <rect id="Rectángulo_1578" data-name="Rectángulo 1578" width="270.88" height="140.52" transform="translate(398.78 219.27) rotate(180)" fill="#fff"/>
      <path id="Trazado_866" data-name="Trazado 866" d="M320.5,219.27h15.23l23-140.52H343.51Z" fill="#f5f5f5"/>
      <path id="Trazado_867" data-name="Trazado 867" d="M269.99,219.27h36.16l23-140.52H292.99Z" fill="#f5f5f5"/>
      <path id="Trazado_868" data-name="Trazado 868" d="M165.47,219.27H180.7l23-140.52H188.48Z" fill="#f5f5f5"/>
      <rect id="Rectángulo_1579" data-name="Rectángulo 1579" width="44" height="109.54" transform="translate(193.78 265.11)" fill="#f0f0f0"/>
      <rect id="Rectángulo_1580" data-name="Rectángulo 1580" width="227.64" height="7.75" transform="translate(202.23 374.65)" fill="#f0f0f0"/>
      <rect id="Rectángulo_1581" data-name="Rectángulo 1581" width="200.54" height="109.54" transform="translate(438.32 374.66) rotate(180)" fill="#f5f5f5"/>
      <rect id="Rectángulo_1582" data-name="Rectángulo 1582" width="201.31" height="40.09" transform="translate(438.32 312.62) rotate(180)" fill="#f0f0f0"/>
      <rect id="Rectángulo_1583" data-name="Rectángulo 1583" width="201.31" height="40.09" transform="translate(438.32 360.03) rotate(180)" fill="#f0f0f0"/>
      <rect id="Rectángulo_1584" data-name="Rectángulo 1584" width="7.61" height="40.09" transform="translate(230.17 272.53)" fill="#e6e6e6"/>
      <rect id="Rectángulo_1585" data-name="Rectángulo 1585" width="7.61" height="40.09" transform="translate(230.17 319.93)" fill="#e6e6e6"/>
      <rect id="Rectángulo_1586" data-name="Rectángulo 1586" width="206.4" height="6.74" transform="translate(237.78 258.37)" fill="#f0f0f0"/>
      <rect id="Rectángulo_1587" data-name="Rectángulo 1587" width="50.15" height="6.74" transform="translate(237.78 265.12) rotate(180)" fill="#e6e6e6"/>
      <path id="Trazado_869" data-name="Trazado 869" d="M122.09,251.34h27.25a21.66,21.66,0,0,1,20.74,16.54l7.2,30.06h14.84a14.69,14.69,0,0,1,14.43,11.932l2,10.3a7.61,7.61,0,0,1,6.25,5.71H141.7a21.64,21.64,0,0,1-20.73-16.52L110.6,266.15a11.77,11.77,0,0,1,11.49-14.81Zm71.58,68.71h10.94l-1.84-9.49a10.85,10.85,0,0,0-10.65-8.82h0l-13.88.05,1.76,7.32a14.32,14.32,0,0,0,13.67,10.94Z" fill="#e6e6e6"/>
      <path id="Trazado_870" data-name="Trazado 870" d="M143.5,325.84h-3.12L128.09,382.4h3.12Z" fill="#e0e0e0"/>
      <path id="Trazado_871" data-name="Trazado 871" d="M155.22,325.84h-3.13L139.81,382.4h3.12Z" fill="#e0e0e0"/>
      <path id="Trazado_872" data-name="Trazado 872" d="M201.2,325.84h3.12l12.29,56.56h-3.13Z" fill="#e0e0e0"/>
      <path id="Trazado_873" data-name="Trazado 873" d="M189.48,325.84h3.12l12.29,56.56h-3.12Z" fill="#e0e0e0"/>
      <rect id="Rectángulo_1588" data-name="Rectángulo 1588" width="5.09" height="165.62" transform="translate(70.67 382.4) rotate(180)" fill="#f0f0f0"/>
      <path id="Trazado_874" data-name="Trazado 874" d="M64.52,381.24l-.13-.7a4.11,4.11,0,0,0,2.4-2.11c1.32-2.34,2.13-7.33-1.55-17.8-5.67-16.13-2.29-29.14,4.45-55.07,1.18-4.51,2.51-9.63,3.89-15.16,5.18-20.71.39-33.56-3.46-43.89-3-8-5.35-14.35-2.33-21.68l.67.28c-2.92,7.07-.6,13.28,2.33,21.15,3.89,10.42,8.72,23.38,3.49,44.32-1.38,5.53-2.71,10.65-3.89,15.17-6.7,25.78-10.07,38.72-4.47,54.64,3.78,10.76,2.89,16,1.48,18.43A4.7,4.7,0,0,1,64.52,381.24Z" fill="#f0f0f0"/>
      <path id="Trazado_875" data-name="Trazado 875" d="M58.91,382.4H77.33l-5.12-3.02H64.03Z" fill="#f0f0f0"/>
      <path id="Trazado_876" data-name="Trazado 876" d="M45.02,237.87H91.23l-5.09-61.24H50.1Z" fill="#f5f5f5"/>
      <path id="Trazado_877" data-name="Trazado 877" d="M372.48,223.84h42.3l-5.57,34.53H378.05Z" fill="#f0f0f0"/>
      <path id="Trazado_878" data-name="Trazado 878" d="M389.45,240.2c11.52,1.38,36.57.2,39.5-19.64s-54.19-23.27-64.49-22.62c-13.13.83-23.76,10.65-23.76,10.65S377.94,238.82,389.45,240.2Z" fill="#e6e6e6"/>
      <path id="Trazado_879" data-name="Trazado 879" d="M406.55,237.64c-8.18.81-22.09-5-16.59-21s16.77-17.46,24.22-18.79c9.49-1.7,28.47,5.51,28.47,5.51S414.73,236.83,406.55,237.64Z" fill="#e6e6e6"/>
      <path id="Trazado_880" data-name="Trazado 880" d="M385.14,211.3c10.31,4.35,18.95,5.83,14.07-7.73s-10.82-20.07-20.5-22.82c-12.33-3.52-27,4-27,4S374.84,207,385.14,211.3Z" fill="#e6e6e6"/>
      <path id="Trazado_881" data-name="Trazado 881" d="M399.13,208.77c-7.87,2.17-14.07,1.71-8.2-11.35s9.78-14.7,16.51-17.2c12.44-4.63,22.86,3.68,22.86,3.68S407,206.61,399.13,208.77Z" fill="#e6e6e6"/>
      <path id="Trazado_882" data-name="Trazado 882" d="M382,188.83c8.55,7,16.42,11.37,16.07.55s-6.4-20.52-15.6-24.89c-6.33-3-20.33-1.65-20.33-1.65S373.45,181.87,382,188.83Z" fill="#e6e6e6"/>
      <path id="Trazado_883" data-name="Trazado 883" d="M387.07,175.61c2,10.85,5.1,19.32,11.86,10.86s7.34-16.39,4.59-26.19C400,147.78,388.85,143,388.85,143S385.09,164.77,387.07,175.61Z" fill="#e6e6e6"/>
      <path id="Trazado_884" data-name="Trazado 884" d="M404.05,184.84c-5.6,4.14-10.45,6.33-8.69-2.46s4.89-11.17,10.24-14.27a20.88,20.88,0,0,1,14.28-2S409.64,180.69,404.05,184.84Z" fill="#e6e6e6"/>
    </g>
    <g id="Character--inject-70">
      <path id="Trazado_885" data-name="Trazado 885" d="M256.56,150.17c.69.86,1.55,1.88,2.34,2.82s1.65,1.89,2.49,2.82c1.69,1.85,3.4,3.67,5.17,5.36a64.094,64.094,0,0,0,5.38,4.63,19.05,19.05,0,0,0,5.06,2.91l.25.09h.38a4.33,4.33,0,0,0,1.66-.78,21.51,21.51,0,0,0,4.39-4.51,53.727,53.727,0,0,0,4.06-6.06c.63-1.08,1.27-2.16,1.86-3.27s1.19-2.28,1.71-3.3l.1-.2a4.31,4.31,0,1,1,8,3.21,69.589,69.589,0,0,1-6.89,15.65,31.88,31.88,0,0,1-6.12,7.39,16.291,16.291,0,0,1-5.25,3.08,12.37,12.37,0,0,1-3.63.65,11.42,11.42,0,0,1-1.94-.1,4.289,4.289,0,0,1-.93-.16l-.71-.16a30.18,30.18,0,0,1-9.09-4.24,58.85,58.85,0,0,1-7-5.38c-2.15-1.89-4.18-3.84-6.12-5.87-1-1-1.92-2-2.85-3.08s-1.81-2.07-2.78-3.28a6.682,6.682,0,1,1,10.41-8.38h0Z" fill="#2c393f"/>
      <path id="Trazado_886" data-name="Trazado 886" d="M295.62,153.37l6.62.93-1.95-7.09s-6.87-.91-7,2.67l.33,1.57a2.42,2.42,0,0,0,2,1.92Z" fill="#ce7a63"/>
      <path id="Trazado_887" data-name="Trazado 887" d="M308.2,151.26v-6.41l-7.91,2.36,1.95,7.09Z" fill="#ce7a63"/>
      <path id="Trazado_888" data-name="Trazado 888" d="M281.74,405.12l7.25-2.35-4.51-17.09-7.25,2.35Z" fill="#ce7a63"/>
      <path id="Trazado_889" data-name="Trazado 889" d="M289.1,401.81l-8.1,2.64a.54.54,0,0,0-.37.67l1.69,6.57a1.36,1.36,0,0,0,1.69.88c2.82-1,4.12-1.58,7.7-2.74a96.807,96.807,0,0,0,12.66-6c2.65-1.66.95-4.33-.35-3.85-5.83,2.13-10.91,2.82-13.48,1.88a2.14,2.14,0,0,0-1.44-.05Z" fill="#263238"/>
      <path id="Trazado_890" data-name="Trazado 890" d="M277.23,388.04l7.26-2.36,2.31,8.81-7.25,2.36Z" opacity="0.2"/>
      <path id="Trazado_891" data-name="Trazado 891" d="M259.57,215s9.06,63,12.11,84.64c3.34,23.7,17.69,92,17.69,92l-13.45,3.72S255.47,329.2,250,306.16c-5.91-25-17.69-91.16-17.69-91.16Z" fill="#2c393f"/>
      <path id="Trazado_892" data-name="Trazado 892" d="M245,282.68c-2.77-13.9-5.77-29.81-8.15-42.71,1.23-3.31,3.1-5,6.74,2.48C249,253.54,247.29,271.84,245,282.68Z" fill="#263238"/>
      <path id="Trazado_893" data-name="Trazado 893" d="M245,282.68c-2.77-13.9-5.77-29.81-8.15-42.71,1.23-3.31,3.1-5,6.74,2.48C249,253.54,247.29,271.84,245,282.68Z" opacity="0.3"/>
      <path id="Trazado_894" data-name="Trazado 894" d="M275.58,395.66l14.41-3.97-.28-5.87-16.22,5.61Z" fill="#263238"/>
      <path id="Trazado_895" data-name="Trazado 895" d="M224.68,408.46h7.61l.99-17.65h-7.62Z" fill="#ce7a63"/>
      <path id="Trazado_896" data-name="Trazado 896" d="M232.69,407.57h-8.56a.54.54,0,0,0-.56.52l-.42,6.78a1.35,1.35,0,0,0,1.34,1.35c3-.05,4.4-.22,8.17-.22,2.31,0,8.82.24,12,.24s3.11-3.16,1.75-3.45c-6.07-1.29-10.27-3.06-12.42-4.75a2.19,2.19,0,0,0-1.3-.47Z" fill="#263238"/>
      <path id="Trazado_897" data-name="Trazado 897" d="M225.66,390.81h7.63l-.52,9.1h-7.62Z" opacity="0.2"/>
      <path id="Trazado_898" data-name="Trazado 898" d="M244.68,214.61s-.55,58.61-1.79,80.43C241.54,318.93,236,397.71,236,397.71H222s-.86-76.85-1.7-100.5c-.91-25.68-2-82.6-2-82.6Z" fill="#2c393f"/>
      <path id="Trazado_899" data-name="Trazado 899" d="M221.52,397.71H236.6l.84-5.29-16.65.83Z" fill="#263238"/>
      <path id="Trazado_900" data-name="Trazado 900" d="M259.62,215.41l-41.24-.8c-.29-3.64,1-15.09.36-30.17a193.37,193.37,0,0,0-4.05-33.24h0a2.39,2.39,0,0,1,1.94-2.88c.72-.13,1.58-.26,2.53-.4,2.45-.36,5.54-.73,8.56-.88A153.85,153.85,0,0,1,245,147a50,50,0,0,1,5.81.81,15,15,0,0,1,3.28,1,3,3,0,0,1,1.67,1.5C257.67,155.53,259.66,177.51,259.62,215.41Z" fill="#f0f0f0"/>
      <path id="Trazado_901" data-name="Trazado 901" d="M222.9,159.06c-1.4,2.34-2.89,4.9-4.25,7.39s-2.74,5-4,7.59-2.45,5.11-3.54,7.67l-.79,1.91-.71,1.91c-.25.64-.43,1.27-.63,1.9l-.31.94a4.925,4.925,0,0,0-.13.52,27.115,27.115,0,0,0-.33,3.49c0,1.33,0,2.72,0,4.12.06,2.82.25,5.71.45,8.6s.45,5.82.73,8.74.56,5.86.85,8.74v.07a4.31,4.31,0,0,1-8.48,1.45c-1.45-5.9-2.62-11.76-3.61-17.76-.49-3-.89-6-1.21-9.13-.15-1.56-.28-3.14-.34-4.78a31.62,31.62,0,0,1,.18-5.39c.05-.47.2-1.17.31-1.66l.3-1.2c.21-.8.4-1.61.64-2.37l.71-2.31.77-2.26q1.59-4.45,3.5-8.69c1.27-2.82,2.59-5.59,4-8.32s2.84-5.37,4.49-8.12A6.68,6.68,0,0,1,222.93,159Z" fill="#2c393f"/>
      <path id="Trazado_902" data-name="Trazado 902" d="M244.21,147c-5-1.19-5.92-4.3-5.58-7.73a19.518,19.518,0,0,1,.4-2.55l-6.31-5.24-4.64-3.84c1.29,5.58,2.74,15.74-1,19.47a21.2,21.2,0,0,0,12.72,3.81C247.19,150.59,244.21,147,244.21,147Z" fill="#ce7a63"/>
      <path id="Trazado_903" data-name="Trazado 903" d="M239.48,150.88l-.68-1.68-4.2,2.51Z" fill="#e0e0e0"/>
      <path id="Trazado_904" data-name="Trazado 904" d="M239.48,150.88l.34-1.68,4.2,2.51Z" fill="#e0e0e0"/>
      <path id="Trazado_905" data-name="Trazado 905" d="M227.37,146.05a45.471,45.471,0,0,0,11.43,3.15,20,20,0,0,0-3.15,5.31c-1.83-.49-9.85-5.39-11.62-7.75Z" fill="#fff"/>
      <path id="Trazado_906" data-name="Trazado 906" d="M243,146.23a7.85,7.85,0,0,1-3.18,3,18.88,18.88,0,0,1,3.91,4.67,12.09,12.09,0,0,0,1.74-7.11Z" fill="#fff"/>
      <path id="Trazado_907" data-name="Trazado 907" d="M227,145.39s-5.55,1.2-10.25,2.64a7.53,7.53,0,0,0-5.29,7.9c1,10.14,5.6,28.54,5.69,36.32.11,9.71,2.15,28,2.15,28l20.79,4.29S242.63,152,227,145.39Z" opacity="0.3"/>
      <path id="Trazado_908" data-name="Trazado 908" d="M243.1,146.05s4.62.49,8.88,1.39a8.23,8.23,0,0,1,6.51,7.46c1.14,16.79.6,33.68,1.14,42.79.56,9.69-.18,22.25-.18,22.25l-8.13,2.35S249.27,158.75,243.1,146.05Z" opacity="0.3"/>
      <path id="Trazado_909" data-name="Trazado 909" d="M227,145.39s-5.55,1.2-10.25,2.64a7.53,7.53,0,0,0-5.29,7.9c1,10.14,4,28.65,4.07,36.43.12,9.71-.95,26.66-.95,26.66l23.61,2.27S242.63,152,227,145.39Z" fill="#2c393f"/>
      <path id="Trazado_910" data-name="Trazado 910" d="M243.1,146.05s4.62.49,8.88,1.39a8.23,8.23,0,0,1,6.51,7.46c1.14,16.79,1.83,33.61,2.36,42.72.57,9.69.62,21.74.62,21.74l-9.6.92S249.27,158.75,243.1,146.05Z" fill="#2c393f"/>
      <path id="Trazado_911" data-name="Trazado 911" d="M239,136.67a19.518,19.518,0,0,0-.4,2.55c-2.36-.47-5.5-3-5.83-5.38a11.3,11.3,0,0,1-.08-2.41Z" opacity="0.2"/>
      <path id="Trazado_912" data-name="Trazado 912" d="M244.73,113.74c.53,3.84-1,7.23-3.5,7.57s-4.88-2.51-5.41-6.35,1-7.24,3.5-7.58S244.2,109.89,244.73,113.74Z" fill="#263238"/>
      <path id="Trazado_913" data-name="Trazado 913" d="M224.87,122c2.9,7,4.24,11.24,9.15,13.79A9.85,9.85,0,0,0,248.45,126c-.65-6.9-5.29-17.2-13.33-17.88A10,10,0,0,0,224.87,122Z" fill="#ce7a63"/>
      <path id="Trazado_914" data-name="Trazado 914" d="M225.13,127.41c.42,3.65,5.75,2.28,4.85-4.92a23.361,23.361,0,0,0-2.29-6.12s12.42-5,15-7.56c2.36-2.35,2.53-5.56.75-6.56a4.1,4.1,0,0,1-3.12,2.39s2.53-3.42.86-5.48a6.55,6.55,0,0,1-5.75,4.23c-4.37.51-9.4-1.39-12.65,3.42-2.59,3.83-6.46,2.4-4.86,7.75-5,3.28-1.31,6.5.86,7.72S224.9,125.4,225.13,127.41Z" fill="#2c393f"/>
      <path id="Trazado_915" data-name="Trazado 915" d="M218.6,114.5s-3.37-.58-2.52-4.63C212.72,113.67,215.26,115.41,218.6,114.5Z" fill="#263238"/>
      <path id="Trazado_916" data-name="Trazado 916" d="M224.56,129.89a8.19,8.19,0,0,0,5.13,1.92c2.37,0,2.5-2.25,1-4.1-1.39-1.66-4.29-3.65-6.24-2.74S222.75,128.37,224.56,129.89Z" fill="#ce7a63"/>
      <path id="Trazado_917" data-name="Trazado 917" d="M236.51,120.62c.2.59.67,1,1.06.84s.53-.68.33-1.26-.68-1-1.06-.84S236.31,120,236.51,120.62Z" fill="#263238"/>
      <path id="Trazado_918" data-name="Trazado 918" d="M243.15,118.59c.2.58.67,1,1.06.84s.53-.68.33-1.26-.67-1-1.06-.84S243,118,243.15,118.59Z" fill="#263238"/>
      <path id="Trazado_919" data-name="Trazado 919" d="M241.14,119.53a23,23,0,0,0,4.52,4.11A3.49,3.49,0,0,1,243,125Z" fill="#ba4d3c"/>
      <path id="Trazado_920" data-name="Trazado 920" d="M241.17,127.32a5.29,5.29,0,0,1-4.06-.87.18.18,0,0,1,0-.25.19.19,0,0,1,.26,0,5.07,5.07,0,0,0,4.42.64.177.177,0,1,1,.1.34A4.94,4.94,0,0,1,241.17,127.32Z" fill="#263238"/>
      <path id="Trazado_921" data-name="Trazado 921" d="M233.72,119.13a.37.37,0,0,1-.18,0,.36.36,0,0,1-.22-.46,3.46,3.46,0,0,1,2.33-2.28.359.359,0,1,1,.16.7A2.75,2.75,0,0,0,234,118.9.35.35,0,0,1,233.72,119.13Z" fill="#263238"/>
      <path id="Trazado_922" data-name="Trazado 922" d="M212.28,250.15a5.12,5.12,0,0,1-.87-.08h0l-13.49-2.47a4.81,4.81,0,0,1-3.85-5.58l1.25-6.81a4.77,4.77,0,0,1,2-3.08,4.72,4.72,0,0,1,3.59-.77l13.49,2.47a4.8,4.8,0,0,1,3.85,5.58L217,246.22a4.79,4.79,0,0,1-4.72,3.93Zm-.5-2.1a2.75,2.75,0,0,0,3.19-2.2l1.25-6.82a2.74,2.74,0,0,0-2.2-3.18l-13.49-2.47a2.74,2.74,0,0,0-3.19,2.2l-1.25,6.81a2.76,2.76,0,0,0,2.2,3.19Z" fill="#00c7c7"/>
      <rect id="Rectángulo_1589" data-name="Rectángulo 1589" width="60.13" height="39.92" rx="5.54" transform="translate(179.435 233.84) rotate(10.39)" fill="#263238"/>
      <rect id="Rectángulo_1590" data-name="Rectángulo 1590" width="60.13" height="39.92" rx="5.54" transform="translate(179.435 233.84) rotate(10.39)" fill="#00c7c7" opacity="0.8"/>
      <rect id="Rectángulo_1591" data-name="Rectángulo 1591" width="60.13" height="39.92" rx="5.54" transform="translate(176.909 233.381) rotate(10.39)" fill="#00c7c7"/>
      <path id="Trazado_923" data-name="Trazado 923" d="M231.85,243.43l-50.69-9.29a4.31,4.31,0,0,0-5,3.45l-2.78,15.2a4.3,4.3,0,0,0,3.45,5l21.3,3.9-.31,1.68A1.41,1.41,0,0,0,199,265l3.79.69a1.42,1.42,0,0,0,1.65-1.13l.3-1.67,22.82,4.18a4.3,4.3,0,0,0,5-3.45l2.79-15.2a4.32,4.32,0,0,0-3.5-4.99Z" fill="#263238" opacity="0.3"/>
      <path id="Trazado_924" data-name="Trazado 924" d="M225.39,265.18l-50.95-9.34a3.65,3.65,0,0,1-2.88-4.76l4.16-13.7a4.79,4.79,0,0,1,5.31-3.26l51,9.34a3.65,3.65,0,0,1,2.88,4.76l-4.16,13.7A4.81,4.81,0,0,1,225.39,265.18Z" fill="#00c7c7"/>
      <path id="Trazado_925" data-name="Trazado 925" d="M200.28,264.27l-3.83-.7a1.62,1.62,0,0,1-1.27-2.1l1.84-6a2.1,2.1,0,0,1,2.34-1.43l3.83.7a1.6,1.6,0,0,1,1.26,2.1l-1.83,6A2.11,2.11,0,0,1,200.28,264.27Z" fill="#fff"/>
      <path id="Trazado_926" data-name="Trazado 926" d="M245.23,115.46a.35.35,0,0,1-.32-.1,3.06,3.06,0,0,0-2.49-1,.35.35,0,0,1-.42-.29.37.37,0,0,1,.29-.42h0a3.73,3.73,0,0,1,3.13,1.16.36.36,0,0,1,0,.51A.39.39,0,0,1,245.23,115.46Z" fill="#263238"/>
      <path id="Trazado_927" data-name="Trazado 927" d="M210.3,224.63l2.28,7.31L203.17,230s-1.45-6.77,2.11-7.23l3.33.43A2,2,0,0,1,210.3,224.63Z" fill="#ce7a63"/>
      <path id="Trazado_928" data-name="Trazado 928" d="M208.07,237.63l-4.1-.77a2.17,2.17,0,0,1-1.72-2.59l.92-4.26,9.41,1.93-2.15,4.49A2.17,2.17,0,0,1,208.07,237.63Z" fill="#ce7a63"/>
    </g>
    <g id="Coin--inject-70">
      <path id="Trazado_929" data-name="Trazado 929" d="M297.09,68.84h6.53v61.25h-6.53a30.627,30.627,0,1,1,0-61.255Z" fill="#00c7c7"/>
      <path id="Trazado_930" data-name="Trazado 930" d="M297.09,68.84h6.53v61.25h-6.53a30.627,30.627,0,1,1,0-61.255Z" opacity="0.1"/>
      <path id="Trazado_931" data-name="Trazado 931" d="M303.63,107.47v2.77h-35.2a25.6,25.6,0,0,1-.9-2.77Z" fill="#263238" opacity="0.3"/>
      <path id="Trazado_932" data-name="Trazado 932" d="M273.29,118.72h30.34v11.37h-6.54a30.53,30.53,0,0,1-23.8-11.37Z" fill="#263238" opacity="0.3"/>
      <path id="Trazado_933" data-name="Trazado 933" d="M317.28,130.84l-.41-.94a33.6,33.6,0,0,0,5.29-2.91l.57.85A34.389,34.389,0,0,1,317.28,130.84Z" fill="#00c7c7"/>
      <path id="Trazado_934" data-name="Trazado 934" d="M328.1,123.35l-.73-.72a33,33,0,0,0,9-17.8l1,.17a33.93,33.93,0,0,1-9.27,18.35Z" fill="#00c7c7"/>
      <circle id="Elipse_45" data-name="Elipse 45" cx="30.62" cy="30.62" r="30.62" transform="translate(262.396 112.705) rotate(-62.8)" fill="#00c7c7"/>
      <path id="Trazado_935" data-name="Trazado 935" d="M305.52,109.88,303,102a11,11,0,0,1-6.42-1.45A8.42,8.42,0,0,1,293.2,96a7.67,7.67,0,0,1,.28-5.8,8.22,8.22,0,0,1,4.4-4.08l-.61-1.9L300,83.3l.61,1.9a8.47,8.47,0,0,1,5.4.51,8.22,8.22,0,0,1,3.7,3.78l-4.55,2.14a4,4,0,0,0-3.22-2.28l2.36,7.34c3.26-.15,5.65.25,7.15,1.19a7.87,7.87,0,0,1,3.24,4.47,8.74,8.74,0,0,1-.22,6.38,9.43,9.43,0,0,1-4.8,4.69l.61,1.9-2.72.88-.58-1.81a9.15,9.15,0,0,1-6.06-.73,10.49,10.49,0,0,1-4.43-4.89l4.74-2.1a6.539,6.539,0,0,0,1.95,2.23,5.31,5.31,0,0,0,2.34.98Zm-6.33-19.71A3.66,3.66,0,0,0,297.84,92a3.39,3.39,0,0,0,0,2.2A3.28,3.28,0,0,0,299,95.87a4.33,4.33,0,0,0,2.27.79Zm9.14,19.1a4,4,0,0,0,1.87-2,3.83,3.83,0,0,0,.1-2.73,3.5,3.5,0,0,0-1.44-1.93A4.94,4.94,0,0,0,306,102Z" fill="#fff"/>
      <path id="Trazado_936" data-name="Trazado 936" d="M280.78,89.44a24.95,24.95,0,0,1,44.3,22.75,24.95,24.95,0,1,0-44.3-22.75Z" opacity="0.1"/>
      <path id="Trazado_937" data-name="Trazado 937" d="M333.25,72.28a2.89,2.89,0,0,0-2.07,2.08.54.54,0,0,1-1,0,2.89,2.89,0,0,0-2.08-2.08.54.54,0,0,1,0-1,2.89,2.89,0,0,0,2.08-2.07.53.53,0,0,1,1,0,2.89,2.89,0,0,0,2.07,2.07.53.53,0,0,1,0,1Z" fill="#00c7c7" opacity="0.3"/>
      <path id="Trazado_938" data-name="Trazado 938" d="M281.13,132.59a2.18,2.18,0,0,0-1.58,1.58.4.4,0,0,1-.76,0,2.19,2.19,0,0,0-1.57-1.58.4.4,0,0,1,0-.76,2.19,2.19,0,0,0,1.57-1.57.4.4,0,0,1,.76,0,2.19,2.19,0,0,0,1.58,1.57.4.4,0,0,1,0,.76Z" fill="#00c7c7" opacity="0.2"/>
      <path id="Trazado_939" data-name="Trazado 939" d="M276.47,68.51a3.87,3.87,0,0,0-2.79,2.79.72.72,0,0,1-1.36,0,3.87,3.87,0,0,0-2.78-2.79.71.71,0,0,1,0-1.35,3.89,3.89,0,0,0,2.78-2.79.72.72,0,0,1,1.36,0,3.88,3.88,0,0,0,2.79,2.79.71.71,0,0,1,0,1.35Z" fill="#00c7c7" opacity="0.4"/>
    </g>
    <path id="Trazado_1679" data-name="Trazado 1679" d="M44,416.24H511.814" transform="translate(-11.637)" fill="none" stroke="#2c393f" stroke-width="1"/>
  </g>
</svg>
